<mxfile host="app.diagrams.net" modified="2023-09-05T12:42:20.747Z" agent="Mozilla/5.0 (Macintosh; Intel Mac OS X 10_15_7) AppleWebKit/537.36 (KHTML, like Gecko) Chrome/116.0.0.0 Safari/537.36" etag="2TOYefY7PnKq1oYiRXDD" version="21.7.2" type="github">
  <diagram name="第 1 页" id="2iXPf0DopAWFekJr0fjR">
    <mxGraphModel dx="819" dy="451" grid="1" gridSize="10" guides="1" tooltips="1" connect="1" arrows="1" fold="1" page="1" pageScale="1" pageWidth="827" pageHeight="1169" math="0" shadow="0">
      <root>
        <mxCell id="0" />
        <mxCell id="1" parent="0" />
        <mxCell id="6LlItkntXIzhk4K0oTEi-4" value="" style="rounded=0;whiteSpace=wrap;html=1;" vertex="1" parent="1">
          <mxGeometry width="380" height="250" as="geometry" />
        </mxCell>
        <mxCell id="6LlItkntXIzhk4K0oTEi-5" value="" style="rounded=0;whiteSpace=wrap;html=1;" vertex="1" parent="1">
          <mxGeometry x="143" y="80" width="194" height="113" as="geometry" />
        </mxCell>
        <mxCell id="6LlItkntXIzhk4K0oTEi-1" value="TV" style="rounded=0;whiteSpace=wrap;html=1;fillColor=#008a00;fontColor=#ffffff;strokeColor=#005700;" vertex="1" parent="1">
          <mxGeometry x="145" y="82" width="190" height="109" as="geometry" />
        </mxCell>
        <mxCell id="6LlItkntXIzhk4K0oTEi-6" value="" style="rounded=0;whiteSpace=wrap;html=1;" vertex="1" parent="1">
          <mxGeometry x="83" y="80" width="60" height="113" as="geometry" />
        </mxCell>
        <mxCell id="6LlItkntXIzhk4K0oTEi-8" value="开放格" style="rounded=0;whiteSpace=wrap;html=1;" vertex="1" parent="1">
          <mxGeometry x="84" y="80" width="59" height="37" as="geometry" />
        </mxCell>
        <mxCell id="6LlItkntXIzhk4K0oTEi-9" value="开放格" style="rounded=0;whiteSpace=wrap;html=1;" vertex="1" parent="1">
          <mxGeometry x="84" y="118" width="59" height="37" as="geometry" />
        </mxCell>
        <mxCell id="6LlItkntXIzhk4K0oTEi-10" value="开放格" style="rounded=0;whiteSpace=wrap;html=1;" vertex="1" parent="1">
          <mxGeometry x="83" y="156" width="59" height="37" as="geometry" />
        </mxCell>
        <mxCell id="6LlItkntXIzhk4K0oTEi-11" value="一门到顶" style="rounded=0;whiteSpace=wrap;html=1;" vertex="1" parent="1">
          <mxGeometry width="41" height="250" as="geometry" />
        </mxCell>
        <mxCell id="6LlItkntXIzhk4K0oTEi-12" value="一门到顶" style="rounded=0;whiteSpace=wrap;html=1;" vertex="1" parent="1">
          <mxGeometry x="339" width="41" height="250" as="geometry" />
        </mxCell>
        <mxCell id="6LlItkntXIzhk4K0oTEi-13" value="一门到顶" style="rounded=0;whiteSpace=wrap;html=1;" vertex="1" parent="1">
          <mxGeometry x="41" width="41" height="250" as="geometry" />
        </mxCell>
        <mxCell id="6LlItkntXIzhk4K0oTEi-14" value="" style="rounded=0;whiteSpace=wrap;html=1;" vertex="1" parent="1">
          <mxGeometry x="82" y="215" width="257" height="35" as="geometry" />
        </mxCell>
        <mxCell id="6LlItkntXIzhk4K0oTEi-15" value="抽屉" style="rounded=0;whiteSpace=wrap;html=1;" vertex="1" parent="1">
          <mxGeometry x="83" y="215" width="64" height="34" as="geometry" />
        </mxCell>
        <mxCell id="6LlItkntXIzhk4K0oTEi-18" value="翻盖门" style="rounded=0;whiteSpace=wrap;html=1;" vertex="1" parent="1">
          <mxGeometry x="147" y="215.5" width="64" height="34" as="geometry" />
        </mxCell>
        <mxCell id="6LlItkntXIzhk4K0oTEi-19" value="翻盖门" style="rounded=0;whiteSpace=wrap;html=1;" vertex="1" parent="1">
          <mxGeometry x="211" y="215" width="64" height="34" as="geometry" />
        </mxCell>
        <mxCell id="6LlItkntXIzhk4K0oTEi-20" value="抽屉" style="rounded=0;whiteSpace=wrap;html=1;" vertex="1" parent="1">
          <mxGeometry x="275" y="215.5" width="64" height="34" as="geometry" />
        </mxCell>
        <mxCell id="6LlItkntXIzhk4K0oTEi-21" value="" style="rounded=0;whiteSpace=wrap;html=1;" vertex="1" parent="1">
          <mxGeometry x="82" y="1" width="43" height="78" as="geometry" />
        </mxCell>
        <mxCell id="6LlItkntXIzhk4K0oTEi-22" value="" style="rounded=0;whiteSpace=wrap;html=1;" vertex="1" parent="1">
          <mxGeometry x="125" y="1" width="43" height="78" as="geometry" />
        </mxCell>
        <mxCell id="6LlItkntXIzhk4K0oTEi-23" value="" style="rounded=0;whiteSpace=wrap;html=1;" vertex="1" parent="1">
          <mxGeometry x="168" y="1" width="43" height="78" as="geometry" />
        </mxCell>
        <mxCell id="6LlItkntXIzhk4K0oTEi-24" value="" style="rounded=0;whiteSpace=wrap;html=1;" vertex="1" parent="1">
          <mxGeometry x="211" y="1" width="43" height="78" as="geometry" />
        </mxCell>
        <mxCell id="6LlItkntXIzhk4K0oTEi-25" value="" style="rounded=0;whiteSpace=wrap;html=1;" vertex="1" parent="1">
          <mxGeometry x="254" y="1" width="43" height="78" as="geometry" />
        </mxCell>
        <mxCell id="6LlItkntXIzhk4K0oTEi-26" value="" style="rounded=0;whiteSpace=wrap;html=1;" vertex="1" parent="1">
          <mxGeometry x="297" y="1" width="42" height="78" as="geometry" />
        </mxCell>
        <mxCell id="6LlItkntXIzhk4K0oTEi-27" value="" style="rounded=0;whiteSpace=wrap;html=1;" vertex="1" parent="1">
          <mxGeometry y="380" width="380" height="250" as="geometry" />
        </mxCell>
        <mxCell id="6LlItkntXIzhk4K0oTEi-28" value="" style="rounded=0;whiteSpace=wrap;html=1;" vertex="1" parent="1">
          <mxGeometry x="103" y="460" width="194" height="113" as="geometry" />
        </mxCell>
        <mxCell id="6LlItkntXIzhk4K0oTEi-29" value="TV" style="rounded=0;whiteSpace=wrap;html=1;fillColor=#008a00;fontColor=#ffffff;strokeColor=#005700;" vertex="1" parent="1">
          <mxGeometry x="105" y="462" width="190" height="109" as="geometry" />
        </mxCell>
        <mxCell id="6LlItkntXIzhk4K0oTEi-30" value="" style="rounded=0;whiteSpace=wrap;html=1;" vertex="1" parent="1">
          <mxGeometry x="43" y="460" width="60" height="113" as="geometry" />
        </mxCell>
        <mxCell id="6LlItkntXIzhk4K0oTEi-31" value="开放格" style="rounded=0;whiteSpace=wrap;html=1;" vertex="1" parent="1">
          <mxGeometry x="44" y="460" width="59" height="37" as="geometry" />
        </mxCell>
        <mxCell id="6LlItkntXIzhk4K0oTEi-32" value="开放格" style="rounded=0;whiteSpace=wrap;html=1;" vertex="1" parent="1">
          <mxGeometry x="44" y="498" width="59" height="37" as="geometry" />
        </mxCell>
        <mxCell id="6LlItkntXIzhk4K0oTEi-33" value="开放格" style="rounded=0;whiteSpace=wrap;html=1;" vertex="1" parent="1">
          <mxGeometry x="43" y="536" width="59" height="37" as="geometry" />
        </mxCell>
        <mxCell id="6LlItkntXIzhk4K0oTEi-34" value="一门到顶" style="rounded=0;whiteSpace=wrap;html=1;" vertex="1" parent="1">
          <mxGeometry y="380" width="41" height="250" as="geometry" />
        </mxCell>
        <mxCell id="6LlItkntXIzhk4K0oTEi-35" value="一门到顶" style="rounded=0;whiteSpace=wrap;html=1;" vertex="1" parent="1">
          <mxGeometry x="299" y="380" width="41" height="250" as="geometry" />
        </mxCell>
        <mxCell id="6LlItkntXIzhk4K0oTEi-36" value="一门到顶" style="rounded=0;whiteSpace=wrap;html=1;" vertex="1" parent="1">
          <mxGeometry x="339" y="380" width="41" height="250" as="geometry" />
        </mxCell>
        <mxCell id="6LlItkntXIzhk4K0oTEi-37" value="" style="rounded=0;whiteSpace=wrap;html=1;" vertex="1" parent="1">
          <mxGeometry x="42" y="595" width="257" height="35" as="geometry" />
        </mxCell>
        <mxCell id="6LlItkntXIzhk4K0oTEi-38" value="抽屉" style="rounded=0;whiteSpace=wrap;html=1;" vertex="1" parent="1">
          <mxGeometry x="43" y="595" width="64" height="34" as="geometry" />
        </mxCell>
        <mxCell id="6LlItkntXIzhk4K0oTEi-39" value="翻盖门" style="rounded=0;whiteSpace=wrap;html=1;" vertex="1" parent="1">
          <mxGeometry x="107" y="595.5" width="64" height="34" as="geometry" />
        </mxCell>
        <mxCell id="6LlItkntXIzhk4K0oTEi-40" value="翻盖门" style="rounded=0;whiteSpace=wrap;html=1;" vertex="1" parent="1">
          <mxGeometry x="171" y="595" width="64" height="34" as="geometry" />
        </mxCell>
        <mxCell id="6LlItkntXIzhk4K0oTEi-41" value="抽屉" style="rounded=0;whiteSpace=wrap;html=1;" vertex="1" parent="1">
          <mxGeometry x="235" y="595.5" width="64" height="34" as="geometry" />
        </mxCell>
        <mxCell id="6LlItkntXIzhk4K0oTEi-42" value="" style="rounded=0;whiteSpace=wrap;html=1;" vertex="1" parent="1">
          <mxGeometry x="42" y="381" width="43" height="78" as="geometry" />
        </mxCell>
        <mxCell id="6LlItkntXIzhk4K0oTEi-43" value="" style="rounded=0;whiteSpace=wrap;html=1;" vertex="1" parent="1">
          <mxGeometry x="85" y="381" width="43" height="78" as="geometry" />
        </mxCell>
        <mxCell id="6LlItkntXIzhk4K0oTEi-44" value="" style="rounded=0;whiteSpace=wrap;html=1;" vertex="1" parent="1">
          <mxGeometry x="128" y="381" width="43" height="78" as="geometry" />
        </mxCell>
        <mxCell id="6LlItkntXIzhk4K0oTEi-45" value="" style="rounded=0;whiteSpace=wrap;html=1;" vertex="1" parent="1">
          <mxGeometry x="171" y="381" width="43" height="78" as="geometry" />
        </mxCell>
        <mxCell id="6LlItkntXIzhk4K0oTEi-46" value="" style="rounded=0;whiteSpace=wrap;html=1;" vertex="1" parent="1">
          <mxGeometry x="214" y="381" width="43" height="78" as="geometry" />
        </mxCell>
        <mxCell id="6LlItkntXIzhk4K0oTEi-47" value="" style="rounded=0;whiteSpace=wrap;html=1;" vertex="1" parent="1">
          <mxGeometry x="257" y="381" width="42" height="78" as="geometry" />
        </mxCell>
      </root>
    </mxGraphModel>
  </diagram>
</mxfile>
